<?xml version="1.0" encoding="UTF-8"?>
<svg id="Layer_2" data-name="Layer 2" xmlns="http://www.w3.org/2000/svg" xmlns:xlink="http://www.w3.org/1999/xlink" viewBox="0 0 736.51 525.61">
  <defs>
    <style>
      .cls-1 {
        fill: url(#New_Gradient_Swatch-2);
      }

      .cls-1, .cls-2, .cls-3, .cls-4 {
        stroke-width: 0px;
      }

      .cls-2 {
        filter: url(#drop-shadow-1);
      }

      .cls-2, .cls-3 {
        fill: #1f4a2c;
      }

      .cls-4 {
        fill: url(#New_Gradient_Swatch);
      }
    </style>
    <linearGradient id="New_Gradient_Swatch" data-name="New Gradient Swatch" x1="253.62" y1="42.18" x2="484.3" y2="175.36" gradientUnits="userSpaceOnUse">
      <stop offset=".08" stop-color="#1f4a2c"/>
      <stop offset=".16" stop-color="#26502d"/>
      <stop offset=".28" stop-color="#396132"/>
      <stop offset=".37" stop-color="#4e7337"/>
      <stop offset=".53" stop-color="#5a9471"/>
      <stop offset=".73" stop-color="#4e7337"/>
      <stop offset=".91" stop-color="#1f4a2c"/>
    </linearGradient>
    <linearGradient id="New_Gradient_Swatch-2" data-name="New Gradient Swatch" x1="252.04" y1="193.17" x2="464.38" y2="315.76" xlink:href="#New_Gradient_Swatch"/>
    <filter id="drop-shadow-1" filterUnits="userSpaceOnUse">
      <feOffset dx="-9" dy="0"/>
      <feGaussianBlur result="blur" stdDeviation="5"/>
      <feFlood flood-color="#000" flood-opacity=".75"/>
      <feComposite in2="blur" operator="in"/>
      <feComposite in="SourceGraphic"/>
    </filter>
  </defs>
  <g id="Layer_1-2" data-name="Layer 1">
    <g>
      <path class="cls-4" d="m493.07,53.37c-13.7-18.48-31.25-31.99-52.65-40.54-21.4-8.55-44.61-12.83-69.6-12.83-27.05,0-51.19,4.54-72.43,13.61-21.23,9.08-37.67,21.59-49.31,37.51-11.64,15.93-17.46,34.17-17.46,54.71,0,25.7,5.99,46.33,17.98,61.92,11.99,15.59,26.03,27.15,42.12,34.68,2.57,1.2,5.25,2.41,8.05,3.62-.73-1.18-1.46-2.41-2.16-3.71-6.93-12.91-10.54-26.86-10.74-41.47-.19-13.7,2.79-27.5,8.59-39.93,11.62-24.87,33.16-42.21,59.08-47.56,5.41-1.12,10.93-1.68,16.41-1.68,20.45,0,40.2,7.84,55.61,22.07,9.06,8.37,16.18,18.58,21.01,29.91h66.56c-.35-28.4-7.36-51.83-21.06-70.31Z"/>
      <path class="cls-1" d="m511.15,220.48l-76.46,146.68c-17.68,5.27-37.78,7.9-60.28,7.9-29.45,0-55.56-4.98-78.33-14.9-22.77-9.93-40.67-24.67-53.68-44.19-13.02-19.53-19.69-43.34-20.03-71.43h99.29l6.96,12.69h0s24.03,43.83,24.03,43.83l3.03,5.54,14.36,26.19,10.38-16.16c.22-.34.4-.62.56-.86.4-.6.81-1.22,1.24-2.01,2.66-4.86,5.33-9.72,7.98-14.58l4.88-8.9,17.44-31.83,5.55-10.14,1.71-3.12c1.31-2.39,2.62-4.78,3.93-7.16,1.36-2.48,2.69-4.99,3.98-7.41,3.46-6.51,6.73-12.66,10.51-18.31,9.25-13.84,14.66-28.48,16.18-43.71,1.99.87,3.92,1.75,5.79,2.63,16.09,7.53,30.14,19.09,42.12,34.66,3.44,4.47,6.39,9.34,8.83,14.62Z"/>
      <path class="cls-3" d="m442.91,150.49c-4.89-44.1-44.56-74.49-86.06-65.92-48.4,9.99-73.46,67.17-49.18,112.37,2.3,4.28,5.31,8.13,7.66,12.38,13.53,24.52,26.97,49.1,40.44,73.66,4.94,9.01,9.89,18.03,15.06,27.45.7-1.08,1.08-1.61,1.4-2.18,13.84-25.25,27.64-50.51,41.5-75.75,4.9-8.93,9.39-18.17,15.01-26.58,11.22-16.78,16.45-34.98,14.18-55.45Zm-28.62,8.61c-.36,24.79-20.33,45.08-43.93,44.65-24.27-.45-43.3-21.22-42.85-46.78.44-25.29,20.29-45.01,44.87-44.58,23.37.41,42.27,21.48,41.91,46.71Z"/>
      <path class="cls-3" d="m371.11,189.25c-.16,0-.32,0-.48,0-7.73-.14-14.93-3.43-20.27-9.27-5.54-6.04-8.5-14.13-8.35-22.76.3-17.01,13.29-30.33,29.58-30.33.18,0,.36,0,.54,0,7.23.13,14.09,3.41,19.31,9.23,5.51,6.14,8.47,14.22,8.35,22.76-.24,16.46-13.37,30.36-28.68,30.36,0,0,0,0,0,0Z"/>
      <path class="cls-2" d="m467.59,239.76c-15.72,10.98-27.05,25.69-34.01,44.13-6.96,18.44-8.3,39.53-4.02,63.28,1.19,6.6,2.9,13.26,5.13,20l76.46-146.68c-14.23,2.51-28.75,8.93-43.56,19.28Z"/>
    </g>
    <path class="cls-3" d="m61.36,492.25c1.54,2.56,2.31,5.76,2.31,9.61,0,4.27-1.21,8.21-3.62,11.82-2.42,3.61-6.04,6.5-10.87,8.67-4.83,2.17-10.89,3.26-18.18,3.26-6.09,0-11.92-.75-17.49-2.26-5.57-1.51-10.07-3.41-13.5-5.73l6.83-15.44c3.29,2.1,7.09,3.83,11.4,5.2,4.31,1.37,8.6,2.05,12.87,2.05,2.94,0,5.27-.24,6.99-.74,1.72-.49,2.98-1.19,3.78-2.1.8-.91,1.21-2,1.21-3.26,0-1.61-.77-2.89-2.31-3.83-1.54-.95-3.56-1.75-6.04-2.42-2.49-.67-5.18-1.3-8.09-1.89-2.91-.59-5.87-1.38-8.88-2.36-3.01-.98-5.74-2.28-8.19-3.89-2.45-1.61-4.43-3.71-5.94-6.3-1.51-2.59-2.26-5.85-2.26-9.77,0-4.34,1.19-8.3,3.57-11.87,2.38-3.57,5.99-6.44,10.82-8.62,4.83-2.17,10.86-3.26,18.07-3.26,4.83,0,9.58.54,14.24,1.63,4.66,1.09,8.77,2.72,12.34,4.89l-6.3,15.34c-3.5-1.96-6.97-3.4-10.4-4.31-3.43-.91-6.76-1.37-9.98-1.37-2.87,0-5.18.32-6.93.95-1.75.63-3.01,1.44-3.78,2.42-.77.98-1.16,2.03-1.16,3.15,0,1.68.77,2.99,2.31,3.94,1.54.95,3.54,1.72,5.99,2.31,2.45.6,5.16,1.21,8.14,1.84,2.98.63,5.94,1.42,8.88,2.36,2.94.95,5.66,2.21,8.14,3.78,2.49,1.58,4.5,3.64,6.04,6.2Zm36.98-41.66h-20.8v73.54h55.79v-16.49h-34.98v-57.05Zm97.76,35.46c-2.49-1.58-5.2-2.84-8.14-3.78-2.94-.95-5.9-1.73-8.88-2.36s-5.69-1.24-8.14-1.84c-2.45-.59-4.45-1.37-5.99-2.31-1.54-.95-2.31-2.26-2.31-3.94,0-1.12.38-2.17,1.16-3.15.77-.98,2.03-1.79,3.78-2.42,1.75-.63,4.06-.95,6.93-.95,3.22,0,6.55.46,9.98,1.37,3.43.91,6.9,2.35,10.4,4.31l6.3-15.34c-3.57-2.17-7.69-3.8-12.35-4.89-4.66-1.09-9.4-1.63-14.23-1.63-7.22,0-13.24,1.09-18.07,3.26-4.83,2.17-8.44,5.04-10.82,8.62-2.38,3.57-3.57,7.53-3.57,11.87,0,3.92.75,7.18,2.26,9.77,1.51,2.59,3.48,4.69,5.94,6.3,2.45,1.61,5.18,2.91,8.2,3.89,3.01.98,5.97,1.77,8.88,2.36,2.9.6,5.6,1.23,8.09,1.89,2.49.67,4.5,1.47,6.04,2.42,1.54.95,2.31,2.22,2.31,3.83,0,1.26-.4,2.35-1.21,3.26-.81.91-2.07,1.61-3.78,2.1-1.72.49-4.05.74-6.99.74-4.27,0-8.56-.68-12.87-2.05-4.31-1.37-8.11-3.1-11.4-5.2l-6.83,15.44c3.43,2.31,7.93,4.22,13.5,5.73,5.57,1.51,11.4,2.26,17.49,2.26,7.28,0,13.34-1.09,18.18-3.26,4.83-2.17,8.46-5.06,10.87-8.67,2.42-3.61,3.63-7.55,3.63-11.82,0-3.85-.77-7.06-2.31-9.61-1.54-2.56-3.56-4.62-6.04-6.2Zm70.02,4.78c0,6.23-1.21,10.72-3.62,13.45-2.42,2.73-5.8,4.1-10.14,4.1s-7.74-1.37-10.19-4.1c-2.45-2.73-3.68-7.21-3.68-13.45v-40.24h-20.8v40.87c0,10.86,3.03,19.26,9.09,25.21,6.06,5.95,14.51,8.93,25.37,8.93s19.24-2.98,25.37-8.93c6.13-5.95,9.19-14.36,9.19-25.21v-40.87h-20.59v40.24Zm229.35,33.3h-14.4l-7.28-17.02h-36.78l-7.31,17.02h-13.97l33.09-73.54h13.44l33.2,73.54Zm-26.26-27.74l-13.77-32.18-13.82,32.18h27.59Zm105.06,7.78c0,6.31-2.4,11.21-7.2,14.71-4.8,3.5-11.92,5.25-21.38,5.25h-36.67v-73.54h34.57c8.75,0,15.44,1.74,20.07,5.2,4.62,3.47,6.93,8.11,6.93,13.92,0,3.93-.91,7.27-2.73,10.03-1.72,2.62-3.99,4.66-6.8,6.14.89.29,1.76.62,2.6,1,3.29,1.51,5.88,3.7,7.77,6.57s2.84,6.44,2.84,10.72Zm-51.59-22.59h19.33c4.7,0,8.34-.84,10.93-2.52,2.59-1.68,3.89-4.2,3.89-7.57s-1.3-5.98-3.89-7.67c-2.59-1.68-6.23-2.52-10.93-2.52h-19.33v20.28Zm37.93,21.22c0-3.64-1.37-6.32-4.1-8.04-2.73-1.71-6.62-2.57-11.66-2.57h-22.17v21.22h22.17c5.04,0,8.93-.84,11.66-2.52,2.73-1.68,4.1-4.38,4.1-8.09Zm102.01,21.33h-14.39l-7.29-17.02h-36.78l-7.31,17.02h-13.97l33.09-73.54h13.45l33.2,73.54Zm-26.26-27.74l-13.77-32.18-13.82,32.18h27.59Zm-238.79-19.74l-11.97,17.38h5.45v15.34c-1.49.86-3.01,1.56-4.57,2.09-3.39,1.16-6.92,1.73-10.56,1.73-3.92,0-7.49-.63-10.72-1.89-3.22-1.26-6.03-3.05-8.4-5.36-2.38-2.31-4.24-5.06-5.57-8.25s-2-6.63-2-10.35.67-7.25,2-10.4,3.19-5.88,5.57-8.19c2.38-2.31,5.2-4.1,8.46-5.36,3.26-1.26,6.84-1.89,10.77-1.89s7.65.68,10.97,2.05c3.33,1.36,6.43,3.48,9.3,6.35l8.62-8.4c-3.43-3.92-7.65-6.9-12.66-8.93-5.01-2.03-10.59-3.05-16.75-3.05s-11.23.93-16.03,2.79c-4.8,1.85-9,4.5-12.6,7.93-3.61,3.44-6.39,7.43-8.36,11.98-1.96,4.55-2.94,9.6-2.94,15.13s.98,10.57,2.94,15.13c1.96,4.55,4.73,8.55,8.3,11.98,3.57,3.44,7.76,6.08,12.56,7.93,4.79,1.85,10.07,2.78,15.81,2.78,5.26,0,10.4-.78,15.45-2.36,5.04-1.58,9.45-3.91,13.24-6.99v-21.8h5.68l-11.97-17.38Zm338.08-24.35l-.14-1.72-.66-8.3-19.06,9.07,5.17,2.99-19.37,32.04-21.74-35.79h-14.5l28.89,47.55v25.99h13.55v-25.83l23.14-38.2,5.6,3.23-.88-11.02Z"/>
  </g>
</svg>